<svg width="165" height="178" viewBox="0 0 165 178" fill="none" xmlns="http://www.w3.org/2000/svg">
<path d="M78.2811 33.0004H57.3477H36.4144L30.4144 39.4004C22.0144 48.2004 -0.652269 74.3337 0.0143973 74.3337C0.414397 74.3337 7.74773 71.4004 16.4144 67.6671C25.0811 64.0671 32.4144 61.0004 32.5477 61.0004C32.8144 61.0004 29.0811 66.867 24.2811 73.9337C19.6144 81.0004 15.8811 87.0004 16.1477 87.2671C16.4144 87.5337 20.5477 86.3337 25.4811 84.467C30.2811 82.6004 34.2811 81.267 34.2811 81.4004C34.2811 81.667 32.2811 87.9337 29.7477 95.4004C27.2144 102.867 25.4811 109 25.7477 109C26.1477 109 30.5477 107.267 35.7477 105C40.8144 102.867 44.9477 101.267 44.9477 101.4C44.9477 101.667 42.8144 108.067 40.2811 115.667C37.7477 123.267 35.6144 129.667 35.6144 129.934C35.6144 130.2 39.7477 128.2 44.9477 125.667C50.0144 123.134 54.8144 121 55.6144 121C56.4144 121 56.9477 126.6 56.9477 135.667C56.9477 143.667 57.3477 150.334 57.7477 150.334C58.1477 150.334 60.8144 148.6 63.6144 146.334L68.6811 142.334L75.7477 159.8L82.6811 177.4L89.3477 160.467C93.0811 151.267 96.6811 143.667 97.3477 143.667C98.0144 143.667 100.948 145.534 103.748 147.8L108.948 151.934V136.467C108.948 127.934 109.214 121 109.614 121C110.014 121 114.548 123.134 119.614 125.667C124.681 128.2 129.214 130.334 129.481 130.334C129.881 130.334 127.881 123.8 125.081 115.667C122.281 107.667 120.148 101 120.281 101C120.548 101 124.681 102.867 129.748 105C134.681 107.267 138.948 108.734 139.214 108.467C139.614 108.067 138.014 102.2 135.748 95.4004C133.481 88.6004 131.614 82.6004 131.614 82.0671C131.614 81.6671 135.348 82.6004 139.881 84.467C144.414 86.2004 148.681 87.6671 149.214 87.6671C149.881 87.6671 146.814 82.467 142.548 75.9337C131.614 59.667 131.881 60.6004 137.881 63.0004C140.681 64.2004 145.614 66.3337 148.948 67.6671C152.281 69.0004 157.214 71.1337 160.014 72.2004C162.681 73.4004 164.948 74.0671 164.948 73.8004C164.948 72.3337 132.548 36.2004 129.881 34.7337C127.881 33.5337 120.414 33.0004 107.348 33.0004H87.6144H78.2811Z" fill="black"/>
<rect x="76" width="12" height="33" fill="black"/>
</svg>
