<svg width="96" height="96" viewBox="0 0 96 96" fill="none" xmlns="http://www.w3.org/2000/svg">
<circle cx="48" cy="48" r="47.75" stroke="white" stroke-width="0.5"/>
<circle cx="48" cy="48" r="24.75" stroke="white" stroke-width="0.5"/>
<path d="M47.9993 16.072C47.3513 16.072 46.7753 15.904 46.2713 15.568C45.7673 15.224 45.3713 14.736 45.0833 14.104C44.7953 13.464 44.6513 12.696 44.6513 11.8C44.6513 10.904 44.7953 10.14 45.0833 9.508C45.3713 8.868 45.7673 8.38 46.2713 8.044C46.7753 7.7 47.3513 7.528 47.9993 7.528C48.6473 7.528 49.2233 7.7 49.7273 8.044C50.2313 8.38 50.6273 8.868 50.9153 9.508C51.2113 10.14 51.3593 10.904 51.3593 11.8C51.3593 12.696 51.2113 13.464 50.9153 14.104C50.6273 14.736 50.2313 15.224 49.7273 15.568C49.2233 15.904 48.6473 16.072 47.9993 16.072ZM47.9993 15.28C48.4953 15.28 48.9273 15.148 49.2953 14.884C49.6633 14.612 49.9513 14.22 50.1593 13.708C50.3673 13.188 50.4713 12.552 50.4713 11.8C50.4713 11.048 50.3673 10.416 50.1593 9.904C49.9513 9.384 49.6633 8.992 49.2953 8.728C48.9273 8.456 48.4953 8.32 47.9993 8.32C47.5193 8.32 47.0913 8.456 46.7153 8.728C46.3393 8.992 46.0473 9.384 45.8393 9.904C45.6313 10.416 45.5273 11.048 45.5273 11.8C45.5273 12.552 45.6313 13.188 45.8393 13.708C46.0473 14.22 46.3393 14.612 46.7153 14.884C47.0913 15.148 47.5193 15.28 47.9993 15.28Z" fill="white"/>
<path d="M17.096 37.6427C16.8884 38.2818 16.6179 38.8038 16.2845 39.2085C15.9535 39.6057 15.5761 39.8742 15.1521 40.0141C14.723 40.1438 14.2726 40.132 13.8009 39.9788C13.3444 39.8304 12.9947 39.5864 12.7517 39.2467C12.5037 38.897 12.3663 38.4654 12.3397 37.952C12.3155 37.4311 12.4097 36.8434 12.6223 36.1891C12.8324 35.5424 13.1004 35.0154 13.4262 34.6081C13.752 34.2009 14.118 33.9287 14.5243 33.7915C14.9254 33.6442 15.3542 33.6448 15.8107 33.7931C16.2825 33.9464 16.6525 34.2054 16.9209 34.5702C17.1817 34.9325 17.328 35.3754 17.3598 35.8989C17.3916 36.4223 17.3037 37.0036 17.096 37.6427ZM16.3999 37.4165C16.6298 36.7089 16.6644 36.1103 16.5039 35.6208C16.3458 35.1236 16.0195 34.7946 15.5249 34.6339C15.0304 34.4732 14.5768 34.5488 14.1643 34.8606C13.7466 35.1623 13.4228 35.6669 13.1929 36.3745C12.963 37.0821 12.9283 37.6807 13.0889 38.1702C13.2419 38.6574 13.5656 38.9813 14.0602 39.1419C14.5547 39.3026 15.0108 39.2321 15.4285 38.9304C15.8462 38.6287 16.17 38.1241 16.3999 37.4165ZM13.0902 36.3411C12.8974 36.9346 12.6531 37.4146 12.3573 37.7811C12.0641 38.1401 11.7332 38.3817 11.3648 38.5059C10.9888 38.6277 10.5915 38.6206 10.1731 38.4846C9.73176 38.3412 9.39223 38.1047 9.15444 37.7751C8.91153 37.4354 8.77436 37.0291 8.74294 36.5563C8.71152 36.0834 8.78728 35.5655 8.97022 35.0025C9.15316 34.4394 9.3963 33.9759 9.69966 33.6118C10.0055 33.2401 10.3565 32.9883 10.7527 32.8562C11.1413 32.7217 11.5562 32.7262 11.9975 32.8695C12.416 33.0055 12.7415 33.2333 12.9742 33.5528C13.1992 33.8699 13.3224 34.2674 13.3437 34.7454C13.3675 35.2157 13.283 35.7477 13.0902 36.3411ZM12.5424 36.1631C12.7451 35.5392 12.774 35.0103 12.629 34.5762C12.484 34.1422 12.1947 33.8547 11.761 33.7138C11.3045 33.5655 10.8914 33.6331 10.5217 33.9167C10.1468 34.1903 9.86169 34.6276 9.66639 35.2287C9.47109 35.8297 9.44469 36.3511 9.58719 36.7927C9.72208 37.2319 10.014 37.5244 10.4629 37.6703C10.9042 37.8137 11.3098 37.7562 11.6797 37.4979C12.0521 37.2319 12.3397 36.787 12.5424 36.1631Z" fill="white"/>
<path d="M67.6679 22.8368L72.3937 16.3323L72.4645 16.8881L70.552 15.4985L71.0034 14.8772L73.3043 16.5489L68.3669 23.3446L67.6679 22.8368Z" fill="white"/>
<path d="M77.3665 34.8122L77.9485 34.623L82.2802 36.8873C82.6759 37.0952 83.0087 37.2394 83.2788 37.3199C83.5565 37.3979 83.8029 37.4314 84.018 37.4204C84.2332 37.4094 84.4282 37.3754 84.6032 37.3186C85.0673 37.1678 85.3806 36.8893 85.5431 36.4832C85.708 36.0848 85.6904 35.5774 85.4901 34.9611C85.3368 34.4894 85.1286 34.0944 84.8654 33.7762C84.6046 33.4655 84.2801 33.2303 83.8917 33.0705L84.2047 32.3253C84.6713 32.5186 85.0826 32.8266 85.4386 33.2492C85.7946 33.6719 86.0703 34.1838 86.2656 34.7848C86.4411 35.325 86.5057 35.8214 86.4592 36.2739C86.4204 36.7239 86.272 37.1086 86.0141 37.4279C85.7586 37.7549 85.4102 37.9901 84.9689 38.1334C84.7102 38.2175 84.443 38.2623 84.1672 38.2678C83.8939 38.2809 83.5855 38.238 83.2422 38.1393C82.909 38.0457 82.5093 37.877 82.0431 37.6331L78.0629 35.5574L78.3083 35.2254L79.9176 40.1785L79.1872 40.4158L77.3665 34.8122Z" fill="white"/>
<path d="M79.2842 57.8005C79.4721 57.2223 79.7414 56.7041 80.0921 56.2461C80.4479 55.7981 80.8325 55.4688 81.2458 55.2582L81.7666 55.8691C81.4162 56.0412 81.0831 56.3157 80.7672 56.6925C80.4488 57.077 80.2056 57.5279 80.0374 58.0452C79.8224 58.7072 79.8025 59.2601 79.9779 59.704C80.1509 60.1556 80.4808 60.4605 80.9677 60.6187C81.4547 60.7769 81.8996 60.728 82.3024 60.4719C82.7028 60.2235 83.0241 59.7265 83.2664 58.9808L83.4518 58.4102L84.0567 58.6067L86.3485 62.0768L85.9919 62.0871L87.4381 57.6361L88.1685 57.8735L86.4998 63.0092L85.9178 62.8201L83.6259 59.35L84.0182 59.0358L83.918 59.344C83.6066 60.3026 83.1611 60.9486 82.5818 61.2819C82 61.6228 81.3743 61.6845 80.7048 61.4669C80.2559 61.3211 79.8872 61.0835 79.5988 60.7543C79.3105 60.4251 79.134 60.0102 79.0695 59.5098C79.0025 59.017 79.0741 58.4472 79.2842 57.8005Z" fill="white"/>
<path d="M71.8496 73.5753L72.2164 74.0801L71.8874 81.2015L71.1108 81.7658L71.4106 74.6655L71.8739 74.507L66.4081 78.478L65.9567 77.8567L71.8496 73.5753ZM66.717 74.5751L68.0149 76.3614L68.4469 76.9968L69.5895 78.5695L68.9099 79.0633L66.018 75.0829L66.717 74.5751Z" fill="white"/>
<path d="M23.355 15.2749C23.9569 14.8376 24.5637 14.6043 25.1754 14.5752C25.7824 14.5396 26.3761 14.6967 26.9565 15.0463C27.5368 15.396 28.088 15.93 28.6099 16.6484C29.1648 17.4121 29.5 18.1525 29.6155 18.8695C29.7375 19.5819 29.6619 20.24 29.3887 20.8439C29.1155 21.4478 28.6715 21.9732 28.0567 22.4199C27.7525 22.6409 27.4401 22.8234 27.1194 22.9673C26.8053 23.1066 26.4912 23.1914 26.1771 23.2218L26.0495 22.4542C26.3089 22.4437 26.5707 22.3821 26.8348 22.2693C27.1007 22.1453 27.3566 21.994 27.6026 21.8153C28.3339 21.284 28.7471 20.6278 28.8422 19.8467C28.9438 19.061 28.6583 18.2053 27.9859 17.2798C27.8777 17.1309 27.7387 16.96 27.5688 16.767C27.4054 16.5693 27.2193 16.3881 27.0106 16.2233L27.3873 16.2314C27.5671 16.615 27.6372 17.0041 27.5976 17.3987C27.5598 17.7822 27.4302 18.1483 27.2089 18.497C26.9941 18.8409 26.699 19.1493 26.3236 19.422C25.877 19.7465 25.4178 19.9515 24.9461 20.0372C24.4808 20.1181 24.0406 20.077 23.6254 19.9139C23.2102 19.7508 22.8522 19.4621 22.5512 19.0479C22.2409 18.6207 22.0731 18.1789 22.0481 17.7225C22.023 17.2661 22.1241 16.8268 22.3513 16.4046C22.5803 15.9712 22.9149 15.5946 23.355 15.2749ZM23.8144 15.8459C23.4908 16.081 23.2474 16.3518 23.0844 16.6581C22.9231 16.9533 22.8512 17.2626 22.8686 17.5862C22.8861 17.9097 23.0054 18.2235 23.2264 18.5277C23.5508 18.9743 23.9616 19.2197 24.4585 19.2641C24.962 19.3037 25.4759 19.1331 26.0001 18.7522C26.3496 18.4983 26.6068 18.2126 26.7716 17.895C26.9429 17.5728 27.0175 17.2467 26.9953 16.9167C26.9796 16.582 26.8706 16.2756 26.6684 15.9973C26.485 15.7448 26.2454 15.558 25.9496 15.4367C25.6538 15.3154 25.3239 15.2832 24.9598 15.34C24.591 15.3904 24.2092 15.5591 23.8144 15.8459Z" fill="white"/>
<path d="M48.1224 79.928C48.7224 79.928 49.2944 80.024 49.8384 80.216C50.3824 80.416 50.8144 80.68 51.1344 81.008L50.7144 81.692C50.4504 81.412 50.0904 81.18 49.6344 80.996C49.1704 80.812 48.6704 80.72 48.1344 80.72C47.4224 80.72 46.8824 80.876 46.5144 81.188C46.1384 81.508 45.9504 81.924 45.9504 82.436C45.9504 82.796 46.0384 83.104 46.2144 83.36C46.3824 83.624 46.6704 83.828 47.0784 83.972C47.4864 84.116 48.0464 84.188 48.7584 84.188H50.5464L50.1144 88.4H45.5184V87.632H49.7664L49.3224 88.052L49.6944 84.524L50.1384 84.956H48.5664C47.7184 84.956 47.0384 84.852 46.5264 84.644C46.0144 84.436 45.6464 84.144 45.4224 83.768C45.1904 83.4 45.0744 82.968 45.0744 82.472C45.0744 82 45.1864 81.568 45.4104 81.176C45.6344 80.792 45.9704 80.488 46.4184 80.264C46.8664 80.04 47.4344 79.928 48.1224 79.928Z" fill="white"/>
<path d="M28.379 73.5386C28.9809 73.9759 29.3925 74.4777 29.614 75.044C29.8307 75.6168 29.8625 76.2332 29.7093 76.8932C29.5514 77.5597 29.2138 78.2489 28.6965 78.9608C28.137 79.731 27.5396 80.2809 26.9046 80.6106C26.2583 80.9421 25.6058 81.0712 24.947 80.998C24.2882 80.9248 23.6514 80.6648 23.0366 80.2181C22.7324 79.9971 22.4623 79.7564 22.2263 79.4959C21.9903 79.2355 21.8126 78.9629 21.693 78.6783L22.3837 78.3198C22.4738 78.5632 22.6156 78.7899 22.8092 78.9998C22.9981 79.2162 23.2188 79.416 23.4712 79.5994C24.2026 80.1308 24.9576 80.3233 25.7363 80.1771C26.5084 80.0262 27.2308 79.4879 27.9032 78.5624C28.0066 78.42 28.1295 78.2373 28.2717 78.0144C28.4028 77.7931 28.5144 77.5578 28.6066 77.3084L28.7153 77.6692C28.3996 77.954 28.0536 78.1377 27.6772 78.2202C27.2961 78.3092 26.9055 78.3023 26.5055 78.1996C26.1055 78.0969 25.7211 77.9115 25.3521 77.6434C24.8991 77.3143 24.5622 76.941 24.3414 76.5235C24.1207 76.106 24.0237 75.6746 24.0505 75.2293C24.0774 74.7841 24.2413 74.3543 24.5422 73.9401C24.8479 73.5194 25.2162 73.2234 25.6473 73.052C26.0736 72.8871 26.5283 72.8466 27.0112 72.9305C27.4829 73.0162 27.9389 73.2189 28.379 73.5386ZM27.9778 74.152C27.6542 73.9169 27.3271 73.7682 26.9966 73.706C26.6548 73.6456 26.3328 73.6737 26.0305 73.7903C25.7236 73.9134 25.4619 74.1238 25.2456 74.4215C24.9212 74.8681 24.8179 75.3369 24.9357 75.828C25.0471 76.3143 25.3649 76.7479 25.8892 77.1288C26.2387 77.3827 26.5899 77.539 26.9428 77.5977C27.2958 77.6563 27.6289 77.6265 27.9424 77.5081C28.2511 77.3962 28.5089 77.1979 28.7158 76.9131C28.8945 76.6671 28.9982 76.3815 29.0269 76.0563C29.0508 75.7375 28.9819 75.4105 28.82 75.0753C28.6469 74.7419 28.3662 74.4341 27.9778 74.152Z" fill="white"/>
<path d="M17.4719 59.4285L8.72836 58.459L9.01198 58.0892L10.6176 63.0309L10.081 62.7384L11.9755 62.1229L12.2388 62.9332L10.0133 63.6563L8.10728 57.7902L8.68933 57.601L17.1827 58.5383L17.4719 59.4285Z" fill="white"/>
</svg>
