<svg width="586" height="524" viewBox="0 0 586 524" fill="none" xmlns="http://www.w3.org/2000/svg">
<rect x="273" y="149" width="27" height="375" fill="#8A4536"/>
<path d="M13.28 156V44H61.76C71.7867 44 80.4267 45.6533 87.68 48.96C94.9333 52.16 100.533 56.8 104.48 62.88C108.427 68.96 110.4 76.2133 110.4 84.64C110.4 92.96 108.427 100.16 104.48 106.24C100.533 112.32 94.9333 117.013 87.68 120.32C80.4267 123.52 71.7867 125.12 61.76 125.12H27.68L39.2 113.44V156H13.28ZM39.2 116.32L27.68 104H60.32C68.32 104 74.2933 102.293 78.24 98.88C82.1867 95.4667 84.16 90.72 84.16 84.64C84.16 78.4533 82.1867 73.6533 78.24 70.24C74.2933 66.8267 68.32 65.12 60.32 65.12H27.68L39.2 52.8V116.32ZM108.56 156L158.48 44H184.08L234.16 156H206.96L166 57.12H176.24L135.12 156H108.56ZM133.52 132L140.4 112.32H198L205.04 132H133.52ZM273.286 156L224.966 44H252.966L295.206 143.2H278.726L321.606 44H347.366L298.886 156H273.286ZM409.868 157.92C401.014 157.92 392.801 156.48 385.228 153.6C377.761 150.72 371.254 146.667 365.707 141.44C360.268 136.213 356.001 130.08 352.908 123.04C349.921 116 348.428 108.32 348.428 100C348.428 91.68 349.921 84 352.908 76.96C356.001 69.92 360.321 63.7867 365.868 58.56C371.414 53.3333 377.921 49.28 385.388 46.4C392.854 43.52 400.961 42.08 409.708 42.08C418.561 42.08 426.667 43.52 434.028 46.4C441.494 49.28 447.948 53.3333 453.388 58.56C458.934 63.7867 463.254 69.92 466.348 76.96C469.441 83.8933 470.988 91.5733 470.988 100C470.988 108.32 469.441 116.053 466.348 123.2C463.254 130.24 458.934 136.373 453.388 141.6C447.948 146.72 441.494 150.72 434.028 153.6C426.667 156.48 418.614 157.92 409.868 157.92ZM409.708 135.84C414.721 135.84 419.308 134.987 423.468 133.28C427.734 131.573 431.468 129.12 434.668 125.92C437.868 122.72 440.321 118.933 442.028 114.56C443.841 110.187 444.748 105.333 444.748 100C444.748 94.6667 443.841 89.8133 442.028 85.44C440.321 81.0667 437.868 77.28 434.668 74.08C431.574 70.88 427.894 68.4267 423.628 66.72C419.361 65.0133 414.721 64.16 409.708 64.16C404.694 64.16 400.054 65.0133 395.788 66.72C391.628 68.4267 387.948 70.88 384.748 74.08C381.548 77.28 379.041 81.0667 377.228 85.44C375.521 89.8133 374.668 94.6667 374.668 100C374.668 105.227 375.521 110.08 377.228 114.56C379.041 118.933 381.494 122.72 384.588 125.92C387.788 129.12 391.521 131.573 395.788 133.28C400.054 134.987 404.694 135.84 409.708 135.84ZM490.468 156V44H516.388V134.88H572.548V156H490.468Z" fill="#8A4536"/>
<path d="M54.08 343.92C45.12 343.92 36.5333 342.747 28.32 340.4C20.1067 337.947 13.4933 334.8 8.48 330.96L17.28 311.44C22.08 314.853 27.7333 317.68 34.24 319.92C40.8533 322.053 47.52 323.12 54.24 323.12C59.36 323.12 63.4667 322.64 66.56 321.68C69.76 320.613 72.1067 319.173 73.6 317.36C75.0933 315.547 75.84 313.467 75.84 311.12C75.84 308.133 74.6667 305.787 72.32 304.08C69.9733 302.267 66.88 300.827 63.04 299.76C59.2 298.587 54.9333 297.52 50.24 296.56C45.6533 295.493 41.0133 294.213 36.32 292.72C31.7333 291.227 27.52 289.307 23.68 286.96C19.84 284.613 16.6933 281.52 14.24 277.68C11.8933 273.84 10.72 268.933 10.72 262.96C10.72 256.56 12.4267 250.747 15.84 245.52C19.36 240.187 24.5867 235.973 31.52 232.88C38.56 229.68 47.36 228.08 57.92 228.08C64.96 228.08 71.8933 228.933 78.72 230.64C85.5467 232.24 91.5733 234.693 96.8 238L88.8 257.68C83.5733 254.693 78.3467 252.507 73.12 251.12C67.8933 249.627 62.7733 248.88 57.76 248.88C52.7467 248.88 48.64 249.467 45.44 250.64C42.24 251.813 39.9467 253.36 38.56 255.28C37.1733 257.093 36.48 259.227 36.48 261.68C36.48 264.56 37.6533 266.907 40 268.72C42.3467 270.427 45.44 271.813 49.28 272.88C53.12 273.947 57.3333 275.013 61.92 276.08C66.6133 277.147 71.2533 278.373 75.84 279.76C80.5333 281.147 84.8 283.013 88.64 285.36C92.48 287.707 95.5733 290.8 97.92 294.64C100.373 298.48 101.6 303.333 101.6 309.2C101.6 315.493 99.84 321.253 96.32 326.48C92.8 331.707 87.52 335.92 80.48 339.12C73.5467 342.32 64.7467 343.92 54.08 343.92ZM44.96 220.88L23.84 197.84H42.08L64.16 216.88H47.84L69.92 197.84H88.16L67.04 220.88H44.96ZM119.311 342V230H145.231V342H119.311ZM208.611 343.92C199.651 343.92 191.065 342.747 182.851 340.4C174.638 337.947 168.025 334.8 163.011 330.96L171.811 311.44C176.611 314.853 182.265 317.68 188.771 319.92C195.385 322.053 202.051 323.12 208.771 323.12C213.891 323.12 217.998 322.64 221.091 321.68C224.291 320.613 226.638 319.173 228.131 317.36C229.625 315.547 230.371 313.467 230.371 311.12C230.371 308.133 229.198 305.787 226.851 304.08C224.505 302.267 221.411 300.827 217.571 299.76C213.731 298.587 209.465 297.52 204.771 296.56C200.185 295.493 195.545 294.213 190.851 292.72C186.265 291.227 182.051 289.307 178.211 286.96C174.371 284.613 171.225 281.52 168.771 277.68C166.425 273.84 165.251 268.933 165.251 262.96C165.251 256.56 166.958 250.747 170.371 245.52C173.891 240.187 179.118 235.973 186.051 232.88C193.091 229.68 201.891 228.08 212.451 228.08C219.491 228.08 226.425 228.933 233.251 230.64C240.078 232.24 246.105 234.693 251.331 238L243.331 257.68C238.105 254.693 232.878 252.507 227.651 251.12C222.425 249.627 217.305 248.88 212.291 248.88C207.278 248.88 203.171 249.467 199.971 250.64C196.771 251.813 194.478 253.36 193.091 255.28C191.705 257.093 191.011 259.227 191.011 261.68C191.011 264.56 192.185 266.907 194.531 268.72C196.878 270.427 199.971 271.813 203.811 272.88C207.651 273.947 211.865 275.013 216.451 276.08C221.145 277.147 225.785 278.373 230.371 279.76C235.065 281.147 239.331 283.013 243.171 285.36C247.011 287.707 250.105 290.8 252.451 294.64C254.905 298.48 256.131 303.333 256.131 309.2C256.131 315.493 254.371 321.253 250.851 326.48C247.331 331.707 242.051 335.92 235.011 339.12C228.078 342.32 219.278 343.92 208.611 343.92ZM199.491 220.88L178.371 197.84H196.611L218.691 216.88H202.371L224.451 197.84H242.691L221.571 220.88H199.491ZM297.043 316.4L295.603 286.48L349.203 230H378.003L329.683 282L315.283 297.36L297.043 316.4ZM273.843 342V230H299.603V342H273.843ZM350.483 342L310.643 293.2L327.603 274.8L380.723 342H350.483ZM372.404 342L422.324 230H447.924L498.004 342H470.804L429.844 243.12H440.084L398.964 342H372.404ZM397.364 318L404.244 298.32H461.844L468.884 318H397.364ZM522.46 343.28C518.193 343.28 514.513 341.84 511.42 338.96C508.433 335.973 506.94 332.187 506.94 327.6C506.94 323.013 508.433 319.333 511.42 316.56C514.513 313.68 518.193 312.24 522.46 312.24C526.833 312.24 530.513 313.68 533.5 316.56C536.487 319.333 537.98 323.013 537.98 327.6C537.98 332.187 536.487 335.973 533.5 338.96C530.513 341.84 526.833 343.28 522.46 343.28Z" fill="#8A4536"/>
<rect x="273" y="342" width="27" height="182" fill="#501401"/>
<rect x="273" y="174" width="27" height="168" fill="#485643"/>
<path d="M314.654 298H300V313.327L314.654 298Z" fill="#485643"/>
<path d="M314.5 266.566V298H300V281.848L314.5 266.566Z" fill="#485643"/>
<path d="M334 246L314.5 266.5V298L334 322V282.887L332 280L334 277.351V246Z" fill="#485643"/>
<path d="M378 230L334 277.352V246L349.195 230H378Z" fill="#485643"/>
<path d="M375.5 335.395L334 282.886V322L350.5 342H375.5V335.395Z" fill="#485643"/>
</svg>
